<svg xmlns="http://www.w3.org/2000/svg" viewBox="0 0 24 24">
    <g fill="none" fill-rule="evenodd">
        <rect width="24" height="24" fill="#222" rx="4"/>
        <path fill="#FFF" d="M12 4c-2.173 0-2.445.01-3.298.048-.852.04-1.433.174-1.942.372-.526.205-.972.478-1.417.923-.445.444-.718.89-.923 1.417-.198.51-.333 1.09-.372 1.94C4.008 9.556 4 9.828 4 12s.01 2.445.048 3.3c.04.85.174 1.43.372 1.94.205.526.478.973.923 1.417.445.445.89.718 1.417.923.51.198 1.09.333 1.942.372.853.04 1.125.048 3.298.048s2.445-.01 3.298-.048c.852-.04 1.433-.174 1.942-.372.526-.205.972-.478 1.417-.923.445-.444.718-.89.923-1.417.198-.51.333-1.09.372-1.94.04-.855.048-1.127.048-3.3s-.01-2.445-.048-3.3c-.04-.85-.174-1.43-.372-1.94-.205-.526-.478-.973-.923-1.417-.445-.445-.89-.718-1.417-.923-.51-.198-1.09-.333-1.942-.372C14.445 4.008 14.173 4 12 4m0 1.44c2.136 0 2.39.01 3.233.048.78.036 1.203.166 1.485.276.374.145.64.318.92.598.28.28.453.547.598.92.11.282.24.705.276 1.485.038.844.047 1.097.047 3.233s-.01 2.39-.048 3.233c-.035.78-.166 1.203-.276 1.485-.145.373-.318.64-.598.92-.28.28-.546.453-.92.598-.282.11-.705.24-1.485.276-.844.04-1.097.047-3.233.047s-2.39-.01-3.233-.048c-.78-.036-1.203-.166-1.485-.276-.374-.145-.64-.318-.92-.598-.28-.28-.453-.547-.598-.92-.11-.282-.24-.705-.276-1.485C5.45 14.39 5.44 14.136 5.44 12s.01-2.39.048-3.233c.035-.78.166-1.203.276-1.485.145-.373.318-.64.598-.92.28-.28.546-.453.92-.598.282-.11.705-.24 1.485-.276.844-.04 1.097-.047 3.233-.047m0 2.452c2.27 0 4.108 1.84 4.108 4.108 0 2.27-1.84 4.108-4.108 4.108-2.27 0-4.108-1.84-4.108-4.108 0-2.27 1.84-4.108 4.108-4.108zm0 6.775c1.473 0 2.667-1.194 2.667-2.667 0-1.473-1.194-2.667-2.667-2.667-1.473 0-2.667 1.194-2.667 2.667 0 1.473 1.194 2.667 2.667 2.667zm5.23-6.938c0 .53-.43.96-.96.96s-.96-.43-.96-.96.43-.96.96-.96.96.43.96.96z"/>
    </g>
</svg>
